<svg xmlns="http://www.w3.org/2000/svg" xmlns:xlink="http://www.w3.org/1999/xlink" contentStyleType="text/css" data-diagram-type="CLASS" height="539px" preserveAspectRatio="none" style="width:1303px;height:539px;background:#FFFFFF;" version="1.1" viewBox="0 0 1303 539" width="1303px" zoomAndPan="magnify"><?plantuml 1.2026.3beta6?><defs/><g><g class="title" data-source-line="4"><text fill="#000000" font-family="sans-serif" font-size="14" font-weight="700" lengthAdjust="spacing" textLength="94.1033" x="601.4061" y="22.9951">Java 集合框架</text></g><!--class Iterable--><g class="entity" data-qualified-name="Iterable" data-source-line="7" id="ent0002"><rect fill="#F1F1F1" height="48" rx="2.5" ry="2.5" style="stroke:#181818;stroke-width:0.5;" width="85.9561" x="401.91" y="44.2969"/><ellipse cx="416.91" cy="60.2969" fill="#B4A7E5" rx="11" ry="11" style="stroke:#181818;stroke-width:1;"/><path d="M412.8319,56.0625 L412.8319,53.9063 L420.2225,53.9063 L420.2225,56.0625 L417.7538,56.0625 L417.7538,64.1406 L420.2225,64.1406 L420.2225,66.2969 L412.8319,66.2969 L412.8319,64.1406 L415.3006,64.1406 L415.3006,56.0625 L412.8319,56.0625 Z " fill="#000000"/><text fill="#000000" font-family="sans-serif" font-size="14" font-style="italic" lengthAdjust="spacing" textLength="53.9561" x="430.91" y="65.1436">Iterable</text><line style="stroke:#181818;stroke-width:0.5;" x1="402.91" x2="486.8661" y1="76.2969" y2="76.2969"/><line style="stroke:#181818;stroke-width:0.5;" x1="402.91" x2="486.8661" y1="84.2969" y2="84.2969"/></g><!--class Collection--><g class="entity" data-qualified-name="Collection" data-source-line="8" id="ent0003"><rect fill="#F1F1F1" height="48" rx="2.5" ry="2.5" style="stroke:#181818;stroke-width:0.5;" width="101.248" x="594.26" y="152.2969"/><ellipse cx="609.26" cy="168.2969" fill="#B4A7E5" rx="11" ry="11" style="stroke:#181818;stroke-width:1;"/><path d="M605.1819,164.0625 L605.1819,161.9063 L612.5725,161.9063 L612.5725,164.0625 L610.1038,164.0625 L610.1038,172.1406 L612.5725,172.1406 L612.5725,174.2969 L605.1819,174.2969 L605.1819,172.1406 L607.6506,172.1406 L607.6506,164.0625 L605.1819,164.0625 Z " fill="#000000"/><text fill="#000000" font-family="sans-serif" font-size="14" font-style="italic" lengthAdjust="spacing" textLength="69.248" x="623.26" y="173.1436">Collection</text><line style="stroke:#181818;stroke-width:0.5;" x1="595.26" x2="694.508" y1="184.2969" y2="184.2969"/><line style="stroke:#181818;stroke-width:0.5;" x1="595.26" x2="694.508" y1="192.2969" y2="192.2969"/></g><!--class List--><g class="entity" data-qualified-name="List" data-source-line="9" id="ent0004"><rect fill="#F1F1F1" height="48" rx="2.5" ry="2.5" style="stroke:#181818;stroke-width:0.5;" width="56.4727" x="738.65" y="260.2969"/><ellipse cx="753.65" cy="276.2969" fill="#B4A7E5" rx="11" ry="11" style="stroke:#181818;stroke-width:1;"/><path d="M749.5719,272.0625 L749.5719,269.9063 L756.9625,269.9063 L756.9625,272.0625 L754.4938,272.0625 L754.4938,280.1406 L756.9625,280.1406 L756.9625,282.2969 L749.5719,282.2969 L749.5719,280.1406 L752.0406,280.1406 L752.0406,272.0625 L749.5719,272.0625 Z " fill="#000000"/><text fill="#000000" font-family="sans-serif" font-size="14" font-style="italic" lengthAdjust="spacing" textLength="24.4727" x="767.65" y="281.1436">List</text><line style="stroke:#181818;stroke-width:0.5;" x1="739.65" x2="794.1227" y1="292.2969" y2="292.2969"/><line style="stroke:#181818;stroke-width:0.5;" x1="739.65" x2="794.1227" y1="300.2969" y2="300.2969"/></g><!--class Set--><g class="entity" data-qualified-name="Set" data-source-line="10" id="ent0005"><rect fill="#F1F1F1" height="48" rx="2.5" ry="2.5" style="stroke:#181818;stroke-width:0.5;" width="54.9893" x="555.39" y="260.2969"/><ellipse cx="570.39" cy="276.2969" fill="#B4A7E5" rx="11" ry="11" style="stroke:#181818;stroke-width:1;"/><path d="M566.3119,272.0625 L566.3119,269.9063 L573.7025,269.9063 L573.7025,272.0625 L571.2338,272.0625 L571.2338,280.1406 L573.7025,280.1406 L573.7025,282.2969 L566.3119,282.2969 L566.3119,280.1406 L568.7806,280.1406 L568.7806,272.0625 L566.3119,272.0625 Z " fill="#000000"/><text fill="#000000" font-family="sans-serif" font-size="14" font-style="italic" lengthAdjust="spacing" textLength="22.9893" x="584.39" y="281.1436">Set</text><line style="stroke:#181818;stroke-width:0.5;" x1="556.39" x2="609.3793" y1="292.2969" y2="292.2969"/><line style="stroke:#181818;stroke-width:0.5;" x1="556.39" x2="609.3793" y1="300.2969" y2="300.2969"/></g><!--class Queue--><g class="entity" data-qualified-name="Queue" data-source-line="11" id="ent0006"><rect fill="#F1F1F1" height="48" rx="2.5" ry="2.5" style="stroke:#181818;stroke-width:0.5;" width="77.9922" x="1047.89" y="260.2969"/><ellipse cx="1062.89" cy="276.2969" fill="#B4A7E5" rx="11" ry="11" style="stroke:#181818;stroke-width:1;"/><path d="M1058.8119,272.0625 L1058.8119,269.9063 L1066.2025,269.9063 L1066.2025,272.0625 L1063.7338,272.0625 L1063.7338,280.1406 L1066.2025,280.1406 L1066.2025,282.2969 L1058.8119,282.2969 L1058.8119,280.1406 L1061.2806,280.1406 L1061.2806,272.0625 L1058.8119,272.0625 Z " fill="#000000"/><text fill="#000000" font-family="sans-serif" font-size="14" font-style="italic" lengthAdjust="spacing" textLength="45.9922" x="1076.89" y="281.1436">Queue</text><line style="stroke:#181818;stroke-width:0.5;" x1="1048.89" x2="1124.8822" y1="292.2969" y2="292.2969"/><line style="stroke:#181818;stroke-width:0.5;" x1="1048.89" x2="1124.8822" y1="300.2969" y2="300.2969"/></g><!--class Deque--><g class="entity" data-qualified-name="Deque" data-source-line="12" id="ent0007"><rect fill="#F1F1F1" height="48" rx="2.5" ry="2.5" style="stroke:#181818;stroke-width:0.5;" width="77.7666" x="1048" y="368.2969"/><ellipse cx="1063" cy="384.2969" fill="#B4A7E5" rx="11" ry="11" style="stroke:#181818;stroke-width:1;"/><path d="M1058.9219,380.0625 L1058.9219,377.9063 L1066.3125,377.9063 L1066.3125,380.0625 L1063.8438,380.0625 L1063.8438,388.1406 L1066.3125,388.1406 L1066.3125,390.2969 L1058.9219,390.2969 L1058.9219,388.1406 L1061.3906,388.1406 L1061.3906,380.0625 L1058.9219,380.0625 Z " fill="#000000"/><text fill="#000000" font-family="sans-serif" font-size="14" font-style="italic" lengthAdjust="spacing" textLength="45.7666" x="1077" y="389.1436">Deque</text><line style="stroke:#181818;stroke-width:0.5;" x1="1049" x2="1124.7666" y1="400.2969" y2="400.2969"/><line style="stroke:#181818;stroke-width:0.5;" x1="1049" x2="1124.7666" y1="408.2969" y2="408.2969"/></g><!--class Map--><g class="entity" data-qualified-name="Map" data-source-line="13" id="ent0008"><rect fill="#F1F1F1" height="48" rx="2.5" ry="2.5" style="stroke:#181818;stroke-width:0.5;" width="61.5449" x="291.11" y="152.2969"/><ellipse cx="306.11" cy="168.2969" fill="#B4A7E5" rx="11" ry="11" style="stroke:#181818;stroke-width:1;"/><path d="M302.0319,164.0625 L302.0319,161.9063 L309.4225,161.9063 L309.4225,164.0625 L306.9538,164.0625 L306.9538,172.1406 L309.4225,172.1406 L309.4225,174.2969 L302.0319,174.2969 L302.0319,172.1406 L304.5006,172.1406 L304.5006,164.0625 L302.0319,164.0625 Z " fill="#000000"/><text fill="#000000" font-family="sans-serif" font-size="14" font-style="italic" lengthAdjust="spacing" textLength="29.5449" x="320.11" y="173.1436">Map</text><line style="stroke:#181818;stroke-width:0.5;" x1="292.11" x2="351.6549" y1="184.2969" y2="184.2969"/><line style="stroke:#181818;stroke-width:0.5;" x1="292.11" x2="351.6549" y1="192.2969" y2="192.2969"/></g><!--class ArrayList--><g class="entity" data-qualified-name="ArrayList" data-source-line="16" id="ent0009"><rect fill="#F1F1F1" height="48" rx="2.5" ry="2.5" style="stroke:#181818;stroke-width:0.5;" width="94.4258" x="780.67" y="368.2969"/><ellipse cx="795.67" cy="384.2969" fill="#ADD1B2" rx="11" ry="11" style="stroke:#181818;stroke-width:1;"/><path d="M798.6388,389.9375 Q798.0606,390.2344 797.42,390.375 Q796.7794,390.5313 796.0763,390.5313 Q793.5763,390.5313 792.2481,388.8906 Q790.9356,387.2344 790.9356,384.1094 Q790.9356,380.9844 792.2481,379.3281 Q793.5763,377.6719 796.0763,377.6719 Q796.7794,377.6719 797.42,377.8281 Q798.0763,377.9844 798.6388,378.2813 L798.6388,381 Q798.0138,380.4219 797.42,380.1563 Q796.8263,379.875 796.2013,379.875 Q794.8575,379.875 794.17,380.9531 Q793.4825,382.0156 793.4825,384.1094 Q793.4825,386.2031 794.17,387.2813 Q794.8575,388.3438 796.2013,388.3438 Q796.8263,388.3438 797.42,388.0781 Q798.0138,387.7969 798.6388,387.2188 L798.6388,389.9375 Z " fill="#000000"/><text fill="#000000" font-family="sans-serif" font-size="14" lengthAdjust="spacing" textLength="62.4258" x="809.67" y="389.1436">ArrayList</text><line style="stroke:#181818;stroke-width:0.5;" x1="781.67" x2="874.0958" y1="400.2969" y2="400.2969"/><line style="stroke:#181818;stroke-width:0.5;" x1="781.67" x2="874.0958" y1="408.2969" y2="408.2969"/></g><!--class LinkedList--><g class="entity" data-qualified-name="LinkedList" data-source-line="17" id="ent0010"><rect fill="#F1F1F1" height="48" rx="2.5" ry="2.5" style="stroke:#181818;stroke-width:0.5;" width="102.6426" x="910.57" y="368.2969"/><ellipse cx="925.57" cy="384.2969" fill="#ADD1B2" rx="11" ry="11" style="stroke:#181818;stroke-width:1;"/><path d="M928.5388,389.9375 Q927.9606,390.2344 927.32,390.375 Q926.6794,390.5313 925.9763,390.5313 Q923.4763,390.5313 922.1481,388.8906 Q920.8356,387.2344 920.8356,384.1094 Q920.8356,380.9844 922.1481,379.3281 Q923.4763,377.6719 925.9763,377.6719 Q926.6794,377.6719 927.32,377.8281 Q927.9763,377.9844 928.5388,378.2813 L928.5388,381 Q927.9138,380.4219 927.32,380.1563 Q926.7263,379.875 926.1013,379.875 Q924.7575,379.875 924.07,380.9531 Q923.3825,382.0156 923.3825,384.1094 Q923.3825,386.2031 924.07,387.2813 Q924.7575,388.3438 926.1013,388.3438 Q926.7263,388.3438 927.32,388.0781 Q927.9138,387.7969 928.5388,387.2188 L928.5388,389.9375 Z " fill="#000000"/><text fill="#000000" font-family="sans-serif" font-size="14" lengthAdjust="spacing" textLength="70.6426" x="939.57" y="389.1436">LinkedList</text><line style="stroke:#181818;stroke-width:0.5;" x1="911.57" x2="1012.2126" y1="400.2969" y2="400.2969"/><line style="stroke:#181818;stroke-width:0.5;" x1="911.57" x2="1012.2126" y1="408.2969" y2="408.2969"/></g><!--class Vector--><g class="entity" data-qualified-name="Vector" data-source-line="18" id="ent0011"><rect fill="#F1F1F1" height="48" rx="2.5" ry="2.5" style="stroke:#181818;stroke-width:0.5;" width="77.6982" x="668.04" y="368.2969"/><ellipse cx="683.04" cy="384.2969" fill="#ADD1B2" rx="11" ry="11" style="stroke:#181818;stroke-width:1;"/><path d="M686.0088,389.9375 Q685.4306,390.2344 684.79,390.375 Q684.1494,390.5313 683.4463,390.5313 Q680.9463,390.5313 679.6181,388.8906 Q678.3056,387.2344 678.3056,384.1094 Q678.3056,380.9844 679.6181,379.3281 Q680.9463,377.6719 683.4463,377.6719 Q684.1494,377.6719 684.79,377.8281 Q685.4463,377.9844 686.0088,378.2813 L686.0088,381 Q685.3838,380.4219 684.79,380.1563 Q684.1963,379.875 683.5713,379.875 Q682.2275,379.875 681.54,380.9531 Q680.8525,382.0156 680.8525,384.1094 Q680.8525,386.2031 681.54,387.2813 Q682.2275,388.3438 683.5713,388.3438 Q684.1963,388.3438 684.79,388.0781 Q685.3838,387.7969 686.0088,387.2188 L686.0088,389.9375 Z " fill="#000000"/><text fill="#000000" font-family="sans-serif" font-size="14" lengthAdjust="spacing" textLength="45.6982" x="697.04" y="389.1436">Vector</text><line style="stroke:#181818;stroke-width:0.5;" x1="669.04" x2="744.7382" y1="400.2969" y2="400.2969"/><line style="stroke:#181818;stroke-width:0.5;" x1="669.04" x2="744.7382" y1="408.2969" y2="408.2969"/></g><!--class Stack--><g class="entity" data-qualified-name="Stack" data-source-line="19" id="ent0012"><rect fill="#F1F1F1" height="48" rx="2.5" ry="2.5" style="stroke:#181818;stroke-width:0.5;" width="70.7598" x="671.51" y="476.2969"/><ellipse cx="686.51" cy="492.2969" fill="#ADD1B2" rx="11" ry="11" style="stroke:#181818;stroke-width:1;"/><path d="M689.4788,497.9375 Q688.9006,498.2344 688.26,498.375 Q687.6194,498.5313 686.9163,498.5313 Q684.4163,498.5313 683.0881,496.8906 Q681.7756,495.2344 681.7756,492.1094 Q681.7756,488.9844 683.0881,487.3281 Q684.4163,485.6719 686.9163,485.6719 Q687.6194,485.6719 688.26,485.8281 Q688.9163,485.9844 689.4788,486.2813 L689.4788,489 Q688.8538,488.4219 688.26,488.1563 Q687.6663,487.875 687.0413,487.875 Q685.6975,487.875 685.01,488.9531 Q684.3225,490.0156 684.3225,492.1094 Q684.3225,494.2031 685.01,495.2813 Q685.6975,496.3438 687.0413,496.3438 Q687.6663,496.3438 688.26,496.0781 Q688.8538,495.7969 689.4788,495.2188 L689.4788,497.9375 Z " fill="#000000"/><text fill="#000000" font-family="sans-serif" font-size="14" lengthAdjust="spacing" textLength="38.7598" x="700.51" y="497.1436">Stack</text><line style="stroke:#181818;stroke-width:0.5;" x1="672.51" x2="741.2698" y1="508.2969" y2="508.2969"/><line style="stroke:#181818;stroke-width:0.5;" x1="672.51" x2="741.2698" y1="516.2969" y2="516.2969"/></g><!--class HashSet--><g class="entity" data-qualified-name="HashSet" data-source-line="22" id="ent0013"><rect fill="#F1F1F1" height="48" rx="2.5" ry="2.5" style="stroke:#181818;stroke-width:0.5;" width="90.2627" x="421.76" y="368.2969"/><ellipse cx="436.76" cy="384.2969" fill="#ADD1B2" rx="11" ry="11" style="stroke:#181818;stroke-width:1;"/><path d="M439.7288,389.9375 Q439.1506,390.2344 438.51,390.375 Q437.8694,390.5313 437.1663,390.5313 Q434.6663,390.5313 433.3381,388.8906 Q432.0256,387.2344 432.0256,384.1094 Q432.0256,380.9844 433.3381,379.3281 Q434.6663,377.6719 437.1663,377.6719 Q437.8694,377.6719 438.51,377.8281 Q439.1663,377.9844 439.7288,378.2813 L439.7288,381 Q439.1038,380.4219 438.51,380.1563 Q437.9163,379.875 437.2913,379.875 Q435.9475,379.875 435.26,380.9531 Q434.5725,382.0156 434.5725,384.1094 Q434.5725,386.2031 435.26,387.2813 Q435.9475,388.3438 437.2913,388.3438 Q437.9163,388.3438 438.51,388.0781 Q439.1038,387.7969 439.7288,387.2188 L439.7288,389.9375 Z " fill="#000000"/><text fill="#000000" font-family="sans-serif" font-size="14" lengthAdjust="spacing" textLength="58.2627" x="450.76" y="389.1436">HashSet</text><line style="stroke:#181818;stroke-width:0.5;" x1="422.76" x2="511.0227" y1="400.2969" y2="400.2969"/><line style="stroke:#181818;stroke-width:0.5;" x1="422.76" x2="511.0227" y1="408.2969" y2="408.2969"/></g><!--class LinkedHashSet--><g class="entity" data-qualified-name="LinkedHashSet" data-source-line="23" id="ent0014"><rect fill="#F1F1F1" height="48" rx="2.5" ry="2.5" style="stroke:#181818;stroke-width:0.5;" width="136.4326" x="398.67" y="476.2969"/><ellipse cx="413.67" cy="492.2969" fill="#ADD1B2" rx="11" ry="11" style="stroke:#181818;stroke-width:1;"/><path d="M416.6388,497.9375 Q416.0606,498.2344 415.42,498.375 Q414.7794,498.5313 414.0763,498.5313 Q411.5763,498.5313 410.2481,496.8906 Q408.9356,495.2344 408.9356,492.1094 Q408.9356,488.9844 410.2481,487.3281 Q411.5763,485.6719 414.0763,485.6719 Q414.7794,485.6719 415.42,485.8281 Q416.0763,485.9844 416.6388,486.2813 L416.6388,489 Q416.0138,488.4219 415.42,488.1563 Q414.8263,487.875 414.2013,487.875 Q412.8575,487.875 412.17,488.9531 Q411.4825,490.0156 411.4825,492.1094 Q411.4825,494.2031 412.17,495.2813 Q412.8575,496.3438 414.2013,496.3438 Q414.8263,496.3438 415.42,496.0781 Q416.0138,495.7969 416.6388,495.2188 L416.6388,497.9375 Z " fill="#000000"/><text fill="#000000" font-family="sans-serif" font-size="14" lengthAdjust="spacing" textLength="104.4326" x="427.67" y="497.1436">LinkedHashSet</text><line style="stroke:#181818;stroke-width:0.5;" x1="399.67" x2="534.1026" y1="508.2969" y2="508.2969"/><line style="stroke:#181818;stroke-width:0.5;" x1="399.67" x2="534.1026" y1="516.2969" y2="516.2969"/></g><!--class TreeSet--><g class="entity" data-qualified-name="TreeSet" data-source-line="24" id="ent0015"><rect fill="#F1F1F1" height="48" rx="2.5" ry="2.5" style="stroke:#181818;stroke-width:0.5;" width="86.5234" x="546.63" y="368.2969"/><ellipse cx="561.63" cy="384.2969" fill="#ADD1B2" rx="11" ry="11" style="stroke:#181818;stroke-width:1;"/><path d="M564.5988,389.9375 Q564.0206,390.2344 563.38,390.375 Q562.7394,390.5313 562.0363,390.5313 Q559.5363,390.5313 558.2081,388.8906 Q556.8956,387.2344 556.8956,384.1094 Q556.8956,380.9844 558.2081,379.3281 Q559.5363,377.6719 562.0363,377.6719 Q562.7394,377.6719 563.38,377.8281 Q564.0363,377.9844 564.5988,378.2813 L564.5988,381 Q563.9738,380.4219 563.38,380.1563 Q562.7863,379.875 562.1613,379.875 Q560.8175,379.875 560.13,380.9531 Q559.4425,382.0156 559.4425,384.1094 Q559.4425,386.2031 560.13,387.2813 Q560.8175,388.3438 562.1613,388.3438 Q562.7863,388.3438 563.38,388.0781 Q563.9738,387.7969 564.5988,387.2188 L564.5988,389.9375 Z " fill="#000000"/><text fill="#000000" font-family="sans-serif" font-size="14" lengthAdjust="spacing" textLength="54.5234" x="575.63" y="389.1436">TreeSet</text><line style="stroke:#181818;stroke-width:0.5;" x1="547.63" x2="632.1534" y1="400.2969" y2="400.2969"/><line style="stroke:#181818;stroke-width:0.5;" x1="547.63" x2="632.1534" y1="408.2969" y2="408.2969"/></g><!--class EnumSet--><g class="entity" data-qualified-name="EnumSet" data-source-line="25" id="ent0016"><rect fill="#F1F1F1" height="48" rx="2.5" ry="2.5" style="stroke:#181818;stroke-width:0.5;" width="95.2188" x="291.28" y="368.2969"/><ellipse cx="306.28" cy="384.2969" fill="#ADD1B2" rx="11" ry="11" style="stroke:#181818;stroke-width:1;"/><path d="M309.2488,389.9375 Q308.6706,390.2344 308.03,390.375 Q307.3894,390.5313 306.6863,390.5313 Q304.1863,390.5313 302.8581,388.8906 Q301.5456,387.2344 301.5456,384.1094 Q301.5456,380.9844 302.8581,379.3281 Q304.1863,377.6719 306.6863,377.6719 Q307.3894,377.6719 308.03,377.8281 Q308.6863,377.9844 309.2488,378.2813 L309.2488,381 Q308.6238,380.4219 308.03,380.1563 Q307.4363,379.875 306.8113,379.875 Q305.4675,379.875 304.78,380.9531 Q304.0925,382.0156 304.0925,384.1094 Q304.0925,386.2031 304.78,387.2813 Q305.4675,388.3438 306.8113,388.3438 Q307.4363,388.3438 308.03,388.0781 Q308.6238,387.7969 309.2488,387.2188 L309.2488,389.9375 Z " fill="#000000"/><text fill="#000000" font-family="sans-serif" font-size="14" lengthAdjust="spacing" textLength="63.2188" x="320.28" y="389.1436">EnumSet</text><line style="stroke:#181818;stroke-width:0.5;" x1="292.28" x2="385.4988" y1="400.2969" y2="400.2969"/><line style="stroke:#181818;stroke-width:0.5;" x1="292.28" x2="385.4988" y1="408.2969" y2="408.2969"/></g><!--class PriorityQueue--><g class="entity" data-qualified-name="PriorityQueue" data-source-line="28" id="ent0017"><rect fill="#F1F1F1" height="48" rx="2.5" ry="2.5" style="stroke:#181818;stroke-width:0.5;" width="128.0654" x="1160.85" y="368.2969"/><ellipse cx="1175.85" cy="384.2969" fill="#ADD1B2" rx="11" ry="11" style="stroke:#181818;stroke-width:1;"/><path d="M1178.8188,389.9375 Q1178.2406,390.2344 1177.6,390.375 Q1176.9594,390.5313 1176.2563,390.5313 Q1173.7563,390.5313 1172.4281,388.8906 Q1171.1156,387.2344 1171.1156,384.1094 Q1171.1156,380.9844 1172.4281,379.3281 Q1173.7563,377.6719 1176.2563,377.6719 Q1176.9594,377.6719 1177.6,377.8281 Q1178.2563,377.9844 1178.8188,378.2813 L1178.8188,381 Q1178.1938,380.4219 1177.6,380.1563 Q1177.0063,379.875 1176.3813,379.875 Q1175.0375,379.875 1174.35,380.9531 Q1173.6625,382.0156 1173.6625,384.1094 Q1173.6625,386.2031 1174.35,387.2813 Q1175.0375,388.3438 1176.3813,388.3438 Q1177.0063,388.3438 1177.6,388.0781 Q1178.1938,387.7969 1178.8188,387.2188 L1178.8188,389.9375 Z " fill="#000000"/><text fill="#000000" font-family="sans-serif" font-size="14" lengthAdjust="spacing" textLength="96.0654" x="1189.85" y="389.1436">PriorityQueue</text><line style="stroke:#181818;stroke-width:0.5;" x1="1161.85" x2="1287.9154" y1="400.2969" y2="400.2969"/><line style="stroke:#181818;stroke-width:0.5;" x1="1161.85" x2="1287.9154" y1="408.2969" y2="408.2969"/></g><!--class ArrayDeque--><g class="entity" data-qualified-name="ArrayDeque" data-source-line="29" id="ent0018"><rect fill="#F1F1F1" height="48" rx="2.5" ry="2.5" style="stroke:#181818;stroke-width:0.5;" width="115.7197" x="1029.03" y="476.2969"/><ellipse cx="1044.03" cy="492.2969" fill="#ADD1B2" rx="11" ry="11" style="stroke:#181818;stroke-width:1;"/><path d="M1046.9988,497.9375 Q1046.4206,498.2344 1045.78,498.375 Q1045.1394,498.5313 1044.4363,498.5313 Q1041.9363,498.5313 1040.6081,496.8906 Q1039.2956,495.2344 1039.2956,492.1094 Q1039.2956,488.9844 1040.6081,487.3281 Q1041.9363,485.6719 1044.4363,485.6719 Q1045.1394,485.6719 1045.78,485.8281 Q1046.4363,485.9844 1046.9988,486.2813 L1046.9988,489 Q1046.3738,488.4219 1045.78,488.1563 Q1045.1863,487.875 1044.5613,487.875 Q1043.2175,487.875 1042.53,488.9531 Q1041.8425,490.0156 1041.8425,492.1094 Q1041.8425,494.2031 1042.53,495.2813 Q1043.2175,496.3438 1044.5613,496.3438 Q1045.1863,496.3438 1045.78,496.0781 Q1046.3738,495.7969 1046.9988,495.2188 L1046.9988,497.9375 Z " fill="#000000"/><text fill="#000000" font-family="sans-serif" font-size="14" lengthAdjust="spacing" textLength="83.7197" x="1058.03" y="497.1436">ArrayDeque</text><line style="stroke:#181818;stroke-width:0.5;" x1="1030.03" x2="1143.7497" y1="508.2969" y2="508.2969"/><line style="stroke:#181818;stroke-width:0.5;" x1="1030.03" x2="1143.7497" y1="516.2969" y2="516.2969"/></g><!--class HashMap--><g class="entity" data-qualified-name="HashMap" data-source-line="32" id="ent0019"><rect fill="#F1F1F1" height="48" rx="2.5" ry="2.5" style="stroke:#181818;stroke-width:0.5;" width="96.8184" x="143.48" y="260.2969"/><ellipse cx="158.48" cy="276.2969" fill="#ADD1B2" rx="11" ry="11" style="stroke:#181818;stroke-width:1;"/><path d="M161.4488,281.9375 Q160.8706,282.2344 160.23,282.375 Q159.5894,282.5313 158.8863,282.5313 Q156.3863,282.5313 155.0581,280.8906 Q153.7456,279.2344 153.7456,276.1094 Q153.7456,272.9844 155.0581,271.3281 Q156.3863,269.6719 158.8863,269.6719 Q159.5894,269.6719 160.23,269.8281 Q160.8863,269.9844 161.4488,270.2813 L161.4488,273 Q160.8238,272.4219 160.23,272.1563 Q159.6363,271.875 159.0113,271.875 Q157.6675,271.875 156.98,272.9531 Q156.2925,274.0156 156.2925,276.1094 Q156.2925,278.2031 156.98,279.2813 Q157.6675,280.3438 159.0113,280.3438 Q159.6363,280.3438 160.23,280.0781 Q160.8238,279.7969 161.4488,279.2188 L161.4488,281.9375 Z " fill="#000000"/><text fill="#000000" font-family="sans-serif" font-size="14" lengthAdjust="spacing" textLength="64.8184" x="172.48" y="281.1436">HashMap</text><line style="stroke:#181818;stroke-width:0.5;" x1="144.48" x2="239.2984" y1="292.2969" y2="292.2969"/><line style="stroke:#181818;stroke-width:0.5;" x1="144.48" x2="239.2984" y1="300.2969" y2="300.2969"/></g><!--class LinkedHashMap--><g class="entity" data-qualified-name="LinkedHashMap" data-source-line="33" id="ent0020"><rect fill="#F1F1F1" height="48" rx="2.5" ry="2.5" style="stroke:#181818;stroke-width:0.5;" width="142.9883" x="113.39" y="368.2969"/><ellipse cx="128.39" cy="384.2969" fill="#ADD1B2" rx="11" ry="11" style="stroke:#181818;stroke-width:1;"/><path d="M131.3588,389.9375 Q130.7806,390.2344 130.14,390.375 Q129.4994,390.5313 128.7963,390.5313 Q126.2962,390.5313 124.9681,388.8906 Q123.6556,387.2344 123.6556,384.1094 Q123.6556,380.9844 124.9681,379.3281 Q126.2962,377.6719 128.7963,377.6719 Q129.4994,377.6719 130.14,377.8281 Q130.7963,377.9844 131.3588,378.2813 L131.3588,381 Q130.7338,380.4219 130.14,380.1563 Q129.5463,379.875 128.9213,379.875 Q127.5775,379.875 126.89,380.9531 Q126.2025,382.0156 126.2025,384.1094 Q126.2025,386.2031 126.89,387.2813 Q127.5775,388.3438 128.9213,388.3438 Q129.5463,388.3438 130.14,388.0781 Q130.7338,387.7969 131.3588,387.2188 L131.3588,389.9375 Z " fill="#000000"/><text fill="#000000" font-family="sans-serif" font-size="14" lengthAdjust="spacing" textLength="110.9883" x="142.39" y="389.1436">LinkedHashMap</text><line style="stroke:#181818;stroke-width:0.5;" x1="114.39" x2="255.3783" y1="400.2969" y2="400.2969"/><line style="stroke:#181818;stroke-width:0.5;" x1="114.39" x2="255.3783" y1="408.2969" y2="408.2969"/></g><!--class TreeMap--><g class="entity" data-qualified-name="TreeMap" data-source-line="34" id="ent0021"><rect fill="#F1F1F1" height="48" rx="2.5" ry="2.5" style="stroke:#181818;stroke-width:0.5;" width="93.0791" x="275.35" y="260.2969"/><ellipse cx="290.35" cy="276.2969" fill="#ADD1B2" rx="11" ry="11" style="stroke:#181818;stroke-width:1;"/><path d="M293.3188,281.9375 Q292.7406,282.2344 292.1,282.375 Q291.4594,282.5313 290.7563,282.5313 Q288.2563,282.5313 286.9281,280.8906 Q285.6156,279.2344 285.6156,276.1094 Q285.6156,272.9844 286.9281,271.3281 Q288.2563,269.6719 290.7563,269.6719 Q291.4594,269.6719 292.1,269.8281 Q292.7563,269.9844 293.3188,270.2813 L293.3188,273 Q292.6938,272.4219 292.1,272.1563 Q291.5063,271.875 290.8813,271.875 Q289.5375,271.875 288.85,272.9531 Q288.1625,274.0156 288.1625,276.1094 Q288.1625,278.2031 288.85,279.2813 Q289.5375,280.3438 290.8813,280.3438 Q291.5063,280.3438 292.1,280.0781 Q292.6938,279.7969 293.3188,279.2188 L293.3188,281.9375 Z " fill="#000000"/><text fill="#000000" font-family="sans-serif" font-size="14" lengthAdjust="spacing" textLength="61.0791" x="304.35" y="281.1436">TreeMap</text><line style="stroke:#181818;stroke-width:0.5;" x1="276.35" x2="367.4291" y1="292.2969" y2="292.2969"/><line style="stroke:#181818;stroke-width:0.5;" x1="276.35" x2="367.4291" y1="300.2969" y2="300.2969"/></g><!--class Hashtable--><g class="entity" data-qualified-name="Hashtable" data-source-line="35" id="ent0022"><rect fill="#F1F1F1" height="48" rx="2.5" ry="2.5" style="stroke:#181818;stroke-width:0.5;" width="102.7314" x="403.52" y="260.2969"/><ellipse cx="418.52" cy="276.2969" fill="#ADD1B2" rx="11" ry="11" style="stroke:#181818;stroke-width:1;"/><path d="M421.4888,281.9375 Q420.9106,282.2344 420.27,282.375 Q419.6294,282.5313 418.9263,282.5313 Q416.4263,282.5313 415.0981,280.8906 Q413.7856,279.2344 413.7856,276.1094 Q413.7856,272.9844 415.0981,271.3281 Q416.4263,269.6719 418.9263,269.6719 Q419.6294,269.6719 420.27,269.8281 Q420.9263,269.9844 421.4888,270.2813 L421.4888,273 Q420.8638,272.4219 420.27,272.1563 Q419.6763,271.875 419.0513,271.875 Q417.7075,271.875 417.02,272.9531 Q416.3325,274.0156 416.3325,276.1094 Q416.3325,278.2031 417.02,279.2813 Q417.7075,280.3438 419.0513,280.3438 Q419.6763,280.3438 420.27,280.0781 Q420.8638,279.7969 421.4888,279.2188 L421.4888,281.9375 Z " fill="#000000"/><text fill="#000000" font-family="sans-serif" font-size="14" lengthAdjust="spacing" textLength="70.7314" x="432.52" y="281.1436">Hashtable</text><line style="stroke:#181818;stroke-width:0.5;" x1="404.52" x2="505.2514" y1="292.2969" y2="292.2969"/><line style="stroke:#181818;stroke-width:0.5;" x1="404.52" x2="505.2514" y1="300.2969" y2="300.2969"/></g><!--class EnumMap--><g class="entity" data-qualified-name="EnumMap" data-source-line="36" id="ent0023"><rect fill="#F1F1F1" height="48" rx="2.5" ry="2.5" style="stroke:#181818;stroke-width:0.5;" width="101.7744" x="7" y="260.2969"/><ellipse cx="22" cy="276.2969" fill="#ADD1B2" rx="11" ry="11" style="stroke:#181818;stroke-width:1;"/><path d="M24.9688,281.9375 Q24.3906,282.2344 23.75,282.375 Q23.1094,282.5313 22.4063,282.5313 Q19.9063,282.5313 18.5781,280.8906 Q17.2656,279.2344 17.2656,276.1094 Q17.2656,272.9844 18.5781,271.3281 Q19.9063,269.6719 22.4063,269.6719 Q23.1094,269.6719 23.75,269.8281 Q24.4063,269.9844 24.9688,270.2813 L24.9688,273 Q24.3438,272.4219 23.75,272.1563 Q23.1563,271.875 22.5313,271.875 Q21.1875,271.875 20.5,272.9531 Q19.8125,274.0156 19.8125,276.1094 Q19.8125,278.2031 20.5,279.2813 Q21.1875,280.3438 22.5313,280.3438 Q23.1563,280.3438 23.75,280.0781 Q24.3438,279.7969 24.9688,279.2188 L24.9688,281.9375 Z " fill="#000000"/><text fill="#000000" font-family="sans-serif" font-size="14" lengthAdjust="spacing" textLength="69.7744" x="36" y="281.1436">EnumMap</text><line style="stroke:#181818;stroke-width:0.5;" x1="8" x2="107.7744" y1="292.2969" y2="292.2969"/><line style="stroke:#181818;stroke-width:0.5;" x1="8" x2="107.7744" y1="300.2969" y2="300.2969"/></g><!--reverse link Iterable to Collection--><g class="link" data-entity-1="ent0002" data-entity-2="ent0003" data-link-type="extension" data-source-line="39" id="lnk25"><path codeLine="39" d="M459.75,110.7569 C459.75,140.3669 459.75,168.2969 459.75,168.2969 C459.75,168.2969 539.01,168.2969 593.81,168.2969" fill="none" id="Iterable-backto-Collection" style="stroke:#181818;stroke-width:1;"/><polygon fill="none" points="459.75,92.7569,453.75,110.7569,465.75,110.7569,459.75,92.7569" style="stroke:#181818;stroke-width:1;"/></g><!--reverse link Collection to List--><g class="link" data-entity-1="ent0003" data-entity-2="ent0004" data-link-type="extension" data-source-line="40" id="lnk27"><path codeLine="40" d="M681.77,218.5369 C681.77,250.3769 681.77,284.2969 681.77,284.2969 C681.77,284.2969 713.79,284.2969 738.55,284.2969" fill="none" id="Collection-backto-List" style="stroke:#181818;stroke-width:1;"/><polygon fill="none" points="681.77,200.5369,675.77,218.5369,687.77,218.5369,681.77,200.5369" style="stroke:#181818;stroke-width:1;"/></g><!--reverse link Collection to Set--><g class="link" data-entity-1="ent0003" data-entity-2="ent0005" data-link-type="extension" data-source-line="41" id="lnk29"><path codeLine="41" d="M602.32,218.5369 C602.32,236.3169 602.32,242.3769 602.32,260.1369" fill="none" id="Collection-backto-Set" style="stroke:#181818;stroke-width:1;"/><polygon fill="none" points="602.32,200.5369,596.32,218.5369,608.32,218.5369,602.32,200.5369" style="stroke:#181818;stroke-width:1;"/></g><!--reverse link Collection to Queue--><g class="link" data-entity-1="ent0003" data-entity-2="ent0006" data-link-type="extension" data-source-line="42" id="lnk31"><path codeLine="42" d="M713.59,176.2969 C829.69,176.2969 1086.89,176.2969 1086.89,176.2969 C1086.89,176.2969 1086.89,228.2169 1086.89,260.0569" fill="none" id="Collection-backto-Queue" style="stroke:#181818;stroke-width:1;"/><polygon fill="none" points="695.59,176.2969,713.59,182.2969,713.59,170.2969,695.59,176.2969" style="stroke:#181818;stroke-width:1;"/></g><!--reverse link Queue to Deque--><g class="link" data-entity-1="ent0006" data-entity-2="ent0007" data-link-type="extension" data-source-line="43" id="lnk33"><path codeLine="43" d="M1086.89,326.5369 C1086.89,344.3169 1086.89,350.3769 1086.89,368.1369" fill="none" id="Queue-backto-Deque" style="stroke:#181818;stroke-width:1;"/><polygon fill="none" points="1086.89,308.5369,1080.89,326.5369,1092.89,326.5369,1086.89,308.5369" style="stroke:#181818;stroke-width:1;"/></g><!--reverse link Iterable to Map--><g class="link" data-entity-1="ent0002" data-entity-2="ent0008" data-link-type="extension" data-source-line="45" id="lnk35"><path codeLine="45" d="M383.52,68.2969 C348.11,68.2969 321.89,68.2969 321.89,68.2969 C321.89,68.2969 321.89,120.2169 321.89,152.0569" fill="none" id="Iterable-backto-Map" style="stroke:#181818;stroke-width:1;"/><polygon fill="none" points="401.52,68.2969,383.52,62.2969,383.52,74.2969,401.52,68.2969" style="stroke:#181818;stroke-width:1;"/></g><!--reverse link List to ArrayList--><g class="link" data-entity-1="ent0004" data-entity-2="ent0009" data-link-type="extension" data-source-line="47" id="lnk37"><path codeLine="47" d="M787.9,326.5369 C787.9,344.3169 787.9,350.3769 787.9,368.1369" fill="none" id="List-backto-ArrayList" style="stroke:#181818;stroke-width:1;"/><polygon fill="none" points="787.9,308.5369,781.9,326.5369,793.9,326.5369,787.9,308.5369" style="stroke:#181818;stroke-width:1;"/></g><!--reverse link List to LinkedList--><g class="link" data-entity-1="ent0004" data-entity-2="ent0010" data-link-type="extension" data-source-line="48" id="lnk39"><path codeLine="48" d="M813.24,284.2969 C867.32,284.2969 961.89,284.2969 961.89,284.2969 C961.89,284.2969 961.89,336.2169 961.89,368.0569" fill="none" id="List-backto-LinkedList" style="stroke:#181818;stroke-width:1;"/><polygon fill="none" points="795.24,284.2969,813.24,290.2969,813.24,278.2969,795.24,284.2969" style="stroke:#181818;stroke-width:1;"/></g><!--link LinkedList to Deque--><g class="link" data-entity-1="ent0010" data-entity-2="ent0007" data-link-type="extension" data-source-line="49" id="lnk40"><path codeLine="49" d="M1013.45,392.2969 C1024.88,392.2969 1018.82,392.2969 1029.67,392.2969" fill="none" id="LinkedList-to-Deque" style="stroke:#181818;stroke-width:1;"/><polygon fill="none" points="1047.67,392.2969,1029.67,386.2969,1029.67,398.2969,1047.67,392.2969" style="stroke:#181818;stroke-width:1;"/></g><!--reverse link List to Vector--><g class="link" data-entity-1="ent0004" data-entity-2="ent0011" data-link-type="extension" data-source-line="50" id="lnk42"><path codeLine="50" d="M742.19,326.5369 C742.19,344.3169 742.19,350.3769 742.19,368.1369" fill="none" id="List-backto-Vector" style="stroke:#181818;stroke-width:1;"/><polygon fill="none" points="742.19,308.5369,736.19,326.5369,748.19,326.5369,742.19,308.5369" style="stroke:#181818;stroke-width:1;"/></g><!--reverse link Vector to Stack--><g class="link" data-entity-1="ent0011" data-entity-2="ent0012" data-link-type="extension" data-source-line="51" id="lnk44"><path codeLine="51" d="M706.89,434.5369 C706.89,452.3169 706.89,458.3769 706.89,476.1369" fill="none" id="Vector-backto-Stack" style="stroke:#181818;stroke-width:1;"/><polygon fill="none" points="706.89,416.5369,700.89,434.5369,712.89,434.5369,706.89,416.5369" style="stroke:#181818;stroke-width:1;"/></g><!--reverse link Set to HashSet--><g class="link" data-entity-1="ent0005" data-entity-2="ent0013" data-link-type="extension" data-source-line="53" id="lnk46"><path codeLine="53" d="M537.09,284.2969 C537.09,284.2969 540.86,392.2969 540.86,392.2969 C540.86,392.2969 527.7,392.2969 512.47,392.2969" fill="none" id="Set-backto-HashSet" style="stroke:#181818;stroke-width:1;"/><polygon fill="none" points="555.09,284.2969,537.09,278.2969,537.09,290.2969,555.09,284.2969" style="stroke:#181818;stroke-width:1;"/></g><!--reverse link HashSet to LinkedHashSet--><g class="link" data-entity-1="ent0013" data-entity-2="ent0014" data-link-type="extension" data-source-line="54" id="lnk48"><path codeLine="54" d="M466.89,434.5369 C466.89,452.3169 466.89,458.3769 466.89,476.1369" fill="none" id="HashSet-backto-LinkedHashSet" style="stroke:#181818;stroke-width:1;"/><polygon fill="none" points="466.89,416.5369,460.89,434.5369,472.89,434.5369,466.89,416.5369" style="stroke:#181818;stroke-width:1;"/></g><!--reverse link Set to TreeSet--><g class="link" data-entity-1="ent0005" data-entity-2="ent0015" data-link-type="extension" data-source-line="55" id="lnk50"><path codeLine="55" d="M592.05,326.5369 C592.05,344.3169 592.05,350.3769 592.05,368.1369" fill="none" id="Set-backto-TreeSet" style="stroke:#181818;stroke-width:1;"/><polygon fill="none" points="592.05,308.5369,586.05,326.5369,598.05,326.5369,592.05,308.5369" style="stroke:#181818;stroke-width:1;"/></g><!--reverse link Set to EnumSet--><g class="link" data-entity-1="ent0005" data-entity-2="ent0016" data-link-type="extension" data-source-line="56" id="lnk52"><path codeLine="56" d="M573.72,326.7669 C573.72,341.0569 573.72,338.2969 573.72,338.2969 C573.72,338.2969 377.46,338.2969 377.46,338.2969 C377.46,338.2969 377.46,353.5369 377.46,367.8269" fill="none" id="Set-backto-EnumSet" style="stroke:#181818;stroke-width:1;"/><polygon fill="none" points="573.72,308.7669,567.72,326.7669,579.72,326.7669,573.72,308.7669" style="stroke:#181818;stroke-width:1;"/></g><!--reverse link Queue to PriorityQueue--><g class="link" data-entity-1="ent0006" data-entity-2="ent0017" data-link-type="extension" data-source-line="58" id="lnk54"><path codeLine="58" d="M1144.06,284.2969 C1184.86,284.2969 1224.89,284.2969 1224.89,284.2969 C1224.89,284.2969 1224.89,336.2169 1224.89,368.0569" fill="none" id="Queue-backto-PriorityQueue" style="stroke:#181818;stroke-width:1;"/><polygon fill="none" points="1126.06,284.2969,1144.06,290.2969,1144.06,278.2969,1126.06,284.2969" style="stroke:#181818;stroke-width:1;"/></g><!--reverse link Deque to ArrayDeque--><g class="link" data-entity-1="ent0007" data-entity-2="ent0018" data-link-type="extension" data-source-line="59" id="lnk56"><path codeLine="59" d="M1086.89,434.5369 C1086.89,452.3169 1086.89,458.3769 1086.89,476.1369" fill="none" id="Deque-backto-ArrayDeque" style="stroke:#181818;stroke-width:1;"/><polygon fill="none" points="1086.89,416.5369,1080.89,434.5369,1092.89,434.5369,1086.89,416.5369" style="stroke:#181818;stroke-width:1;"/></g><!--reverse link Map to HashMap--><g class="link" data-entity-1="ent0008" data-entity-2="ent0019" data-link-type="extension" data-source-line="61" id="lnk58"><path codeLine="61" d="M272.75,184.2969 C234.29,184.2969 191.89,184.2969 191.89,184.2969 C191.89,184.2969 191.89,230.2269 191.89,259.8369" fill="none" id="Map-backto-HashMap" style="stroke:#181818;stroke-width:1;"/><polygon fill="none" points="290.75,184.2969,272.75,178.2969,272.75,190.2969,290.75,184.2969" style="stroke:#181818;stroke-width:1;"/></g><!--reverse link HashMap to LinkedHashMap--><g class="link" data-entity-1="ent0019" data-entity-2="ent0020" data-link-type="extension" data-source-line="62" id="lnk60"><path codeLine="62" d="M191.89,326.5369 C191.89,344.3169 191.89,350.3769 191.89,368.1369" fill="none" id="HashMap-backto-LinkedHashMap" style="stroke:#181818;stroke-width:1;"/><polygon fill="none" points="191.89,308.5369,185.89,326.5369,197.89,326.5369,191.89,308.5369" style="stroke:#181818;stroke-width:1;"/></g><!--reverse link Map to TreeMap--><g class="link" data-entity-1="ent0008" data-entity-2="ent0021" data-link-type="extension" data-source-line="63" id="lnk62"><path codeLine="63" d="M321.89,218.5369 C321.89,236.3169 321.89,242.3769 321.89,260.1369" fill="none" id="Map-backto-TreeMap" style="stroke:#181818;stroke-width:1;"/><polygon fill="none" points="321.89,200.5369,315.89,218.5369,327.89,218.5369,321.89,200.5369" style="stroke:#181818;stroke-width:1;"/></g><!--reverse link Map to Hashtable--><g class="link" data-entity-1="ent0008" data-entity-2="ent0022" data-link-type="extension" data-source-line="64" id="lnk64"><path codeLine="64" d="M371.04,184.2969 C403.49,184.2969 431.64,184.2969 431.64,184.2969 C431.64,184.2969 431.64,230.2269 431.64,259.8369" fill="none" id="Map-backto-Hashtable" style="stroke:#181818;stroke-width:1;"/><polygon fill="none" points="353.04,184.2969,371.04,190.2969,371.04,178.2969,353.04,184.2969" style="stroke:#181818;stroke-width:1;"/></g><!--reverse link Map to EnumMap--><g class="link" data-entity-1="ent0008" data-entity-2="ent0023" data-link-type="extension" data-source-line="65" id="lnk66"><path codeLine="65" d="M272.83,168.2969 C203.04,168.2969 57.89,168.2969 57.89,168.2969 C57.89,168.2969 57.89,225.9669 57.89,259.9769" fill="none" id="Map-backto-EnumMap" style="stroke:#181818;stroke-width:1;"/><polygon fill="none" points="290.83,168.2969,272.83,162.2969,272.83,174.2969,290.83,168.2969" style="stroke:#181818;stroke-width:1;"/></g><?plantuml-src VL9DIyD04BtlhzYRfw9_GA6eOAM2Kl6-ZQjTccRZPYDKl5hqKhqB1H7n9ah1Im_-cYJuByn-PMTRQawPDylCc_TUDcH9IWGPuIWcMTQMKh1-BcaduacFtL2yXRBcISmIAiSfnLp80KT8CXbJV4Yk2VvzdXHFz-NBf9nz8xI1j_M7o-bRyVXgAyGIISK5YIZkr3-a7rC0xV8uff5aF05WbsKIb3qAgvESvd327hqAwYEI0Yfg52u-PjNqi_fQE4hwQjmMWeprBbDtMJAavm0ugvbnOOkU9D4GJAvPhHjyGBA18Wt7XjYfeDHN-qa-KfKVhezSD_vOC2wO71ibm2r62Z-bbk8_YagfPOeUKnHzfNfIU-SfXqfNY_VouMVJx2lkvjMyMUbDngqyRTtk-2HeVom8ig34NKMDAgkuljlXHXMaRbzUXXh7NKkRxNrV2mjsEP2gOoGsmGXUwtWun0O7MTCTh3mEqk0QBXms5l2zpGQ4K120y6wV0uVRK5Xp7Qgy2ro7L5JJsW_VDnc0e0q2WFu0?></g></svg>