<svg xmlns="http://www.w3.org/2000/svg" viewBox="0 0 1200 500" width="1200" height="500">
  <defs>
    <style>
      .title { font: bold 22px "PingFang SC","Microsoft YaHei",sans-serif; fill: #333333; }
.section { font: bold 16px "PingFang SC","Microsoft YaHei",sans-serif; fill: #333333; }
      .dim { font: 13px "SF Mono","Cascadia Code","Consolas",monospace; fill: #999999; }
      .coord { font: 13px "SF Mono","Cascadia Code","Consolas",monospace; fill: #666666; text-anchor: middle; dominant-baseline: central; }
      .step-label { font: bold 14px "PingFang SC","Microsoft YaHei",sans-serif; fill: #666666; }
      .step-num { font: bold 14px "PingFang SC","Microsoft YaHei",sans-serif; fill: #fff; text-anchor: middle; dominant-baseline: central; }
      .cell { fill: #ffffff; stroke: #e0e0e0; stroke-width: 1.5; }
      .cell-h { fill: #EFF6FF; stroke: #BFDBFE; stroke-width: 1.5; }
      .formula { font: 14px "PingFang SC","Microsoft YaHei",sans-serif; fill: #666666; }
      .formula-mono { font: 14px "SF Mono","Cascadia Code","Consolas",monospace; fill: #666666; }
    </style>
    <marker id="arr-b" markerWidth="6" markerHeight="4" refX="5" refY="2" orient="auto">
      <polygon points="0 0, 6 2, 0 4" fill="#3498db"/>
    </marker>
    <marker id="arr-p" markerWidth="6" markerHeight="4" refX="5" refY="2" orient="auto">
      <polygon points="0 0, 6 2, 0 4" fill="#9b59b6"/>
    </marker>
    <!-- Original matrix rows (6 cols, cell 56×44) -->
    <g id="o-r0">
      <rect x="0" y="0" width="56" height="44" class="cell-h" rx="3"/><text x="28" y="22" class="coord">(1,1)</text>
      <rect x="56" y="0" width="56" height="44" class="cell" rx="3"/><text x="84" y="22" class="coord">(1,2)</text>
      <rect x="112" y="0" width="56" height="44" class="cell-h" rx="3"/><text x="140" y="22" class="coord">(1,3)</text>
      <rect x="168" y="0" width="56" height="44" class="cell" rx="3"/><text x="196" y="22" class="coord">(1,4)</text>
      <rect x="224" y="0" width="56" height="44" class="cell-h" rx="3"/><text x="252" y="22" class="coord">(1,5)</text>
      <rect x="280" y="0" width="56" height="44" class="cell" rx="3"/><text x="308" y="22" class="coord">(1,6)</text>
    </g>
    <g id="o-r1">
      <rect x="0" y="0" width="56" height="44" class="cell" rx="3"/><text x="28" y="22" class="coord">(2,1)</text>
      <rect x="56" y="0" width="56" height="44" class="cell-h" rx="3"/><text x="84" y="22" class="coord">(2,2)</text>
      <rect x="112" y="0" width="56" height="44" class="cell" rx="3"/><text x="140" y="22" class="coord">(2,3)</text>
      <rect x="168" y="0" width="56" height="44" class="cell-h" rx="3"/><text x="196" y="22" class="coord">(2,4)</text>
      <rect x="224" y="0" width="56" height="44" class="cell" rx="3"/><text x="252" y="22" class="coord">(2,5)</text>
      <rect x="280" y="0" width="56" height="44" class="cell-h" rx="3"/><text x="308" y="22" class="coord">(2,6)</text>
    </g>
    <g id="o-r2">
      <rect x="0" y="0" width="56" height="44" class="cell-h" rx="3"/><text x="28" y="22" class="coord">(3,1)</text>
      <rect x="56" y="0" width="56" height="44" class="cell" rx="3"/><text x="84" y="22" class="coord">(3,2)</text>
      <rect x="112" y="0" width="56" height="44" class="cell-h" rx="3"/><text x="140" y="22" class="coord">(3,3)</text>
      <rect x="168" y="0" width="56" height="44" class="cell" rx="3"/><text x="196" y="22" class="coord">(3,4)</text>
      <rect x="224" y="0" width="56" height="44" class="cell-h" rx="3"/><text x="252" y="22" class="coord">(3,5)</text>
      <rect x="280" y="0" width="56" height="44" class="cell" rx="3"/><text x="308" y="22" class="coord">(3,6)</text>
    </g>
    <g id="o-r3">
      <rect x="0" y="0" width="56" height="44" class="cell" rx="3"/><text x="28" y="22" class="coord">(4,1)</text>
      <rect x="56" y="0" width="56" height="44" class="cell-h" rx="3"/><text x="84" y="22" class="coord">(4,2)</text>
      <rect x="112" y="0" width="56" height="44" class="cell" rx="3"/><text x="140" y="22" class="coord">(4,3)</text>
      <rect x="168" y="0" width="56" height="44" class="cell-h" rx="3"/><text x="196" y="22" class="coord">(4,4)</text>
      <rect x="224" y="0" width="56" height="44" class="cell" rx="3"/><text x="252" y="22" class="coord">(4,5)</text>
      <rect x="280" y="0" width="56" height="44" class="cell-h" rx="3"/><text x="308" y="22" class="coord">(4,6)</text>
    </g>
    <g id="o-r4">
      <rect x="0" y="0" width="56" height="44" class="cell-h" rx="3"/><text x="28" y="22" class="coord">(5,1)</text>
      <rect x="56" y="0" width="56" height="44" class="cell" rx="3"/><text x="84" y="22" class="coord">(5,2)</text>
      <rect x="112" y="0" width="56" height="44" class="cell-h" rx="3"/><text x="140" y="22" class="coord">(5,3)</text>
      <rect x="168" y="0" width="56" height="44" class="cell" rx="3"/><text x="196" y="22" class="coord">(5,4)</text>
      <rect x="224" y="0" width="56" height="44" class="cell-h" rx="3"/><text x="252" y="22" class="coord">(5,5)</text>
      <rect x="280" y="0" width="56" height="44" class="cell" rx="3"/><text x="308" y="22" class="coord">(5,6)</text>
    </g>
    <!-- Transposed matrix rows (5 cols) -->
    <g id="t-r0">
      <rect x="0" y="0" width="56" height="44" class="cell-h" rx="3"/><text x="28" y="22" class="coord">(1,1)</text>
      <rect x="56" y="0" width="56" height="44" class="cell" rx="3"/><text x="84" y="22" class="coord">(2,1)</text>
      <rect x="112" y="0" width="56" height="44" class="cell-h" rx="3"/><text x="140" y="22" class="coord">(3,1)</text>
      <rect x="168" y="0" width="56" height="44" class="cell" rx="3"/><text x="196" y="22" class="coord">(4,1)</text>
      <rect x="224" y="0" width="56" height="44" class="cell-h" rx="3"/><text x="252" y="22" class="coord">(5,1)</text>
    </g>
    <g id="t-r1">
      <rect x="0" y="0" width="56" height="44" class="cell" rx="3"/><text x="28" y="22" class="coord">(1,2)</text>
      <rect x="56" y="0" width="56" height="44" class="cell-h" rx="3"/><text x="84" y="22" class="coord">(2,2)</text>
      <rect x="112" y="0" width="56" height="44" class="cell" rx="3"/><text x="140" y="22" class="coord">(3,2)</text>
      <rect x="168" y="0" width="56" height="44" class="cell-h" rx="3"/><text x="196" y="22" class="coord">(4,2)</text>
      <rect x="224" y="0" width="56" height="44" class="cell" rx="3"/><text x="252" y="22" class="coord">(5,2)</text>
    </g>
    <g id="t-r2">
      <rect x="0" y="0" width="56" height="44" class="cell-h" rx="3"/><text x="28" y="22" class="coord">(1,3)</text>
      <rect x="56" y="0" width="56" height="44" class="cell" rx="3"/><text x="84" y="22" class="coord">(2,3)</text>
      <rect x="112" y="0" width="56" height="44" class="cell-h" rx="3"/><text x="140" y="22" class="coord">(3,3)</text>
      <rect x="168" y="0" width="56" height="44" class="cell" rx="3"/><text x="196" y="22" class="coord">(4,3)</text>
      <rect x="224" y="0" width="56" height="44" class="cell-h" rx="3"/><text x="252" y="22" class="coord">(5,3)</text>
    </g>
    <g id="t-r3">
      <rect x="0" y="0" width="56" height="44" class="cell" rx="3"/><text x="28" y="22" class="coord">(1,4)</text>
      <rect x="56" y="0" width="56" height="44" class="cell-h" rx="3"/><text x="84" y="22" class="coord">(2,4)</text>
      <rect x="112" y="0" width="56" height="44" class="cell" rx="3"/><text x="140" y="22" class="coord">(3,4)</text>
      <rect x="168" y="0" width="56" height="44" class="cell-h" rx="3"/><text x="196" y="22" class="coord">(4,4)</text>
      <rect x="224" y="0" width="56" height="44" class="cell" rx="3"/><text x="252" y="22" class="coord">(5,4)</text>
    </g>
    <g id="t-r4">
      <rect x="0" y="0" width="56" height="44" class="cell-h" rx="3"/><text x="28" y="22" class="coord">(1,5)</text>
      <rect x="56" y="0" width="56" height="44" class="cell" rx="3"/><text x="84" y="22" class="coord">(2,5)</text>
      <rect x="112" y="0" width="56" height="44" class="cell-h" rx="3"/><text x="140" y="22" class="coord">(3,5)</text>
      <rect x="168" y="0" width="56" height="44" class="cell" rx="3"/><text x="196" y="22" class="coord">(4,5)</text>
      <rect x="224" y="0" width="56" height="44" class="cell-h" rx="3"/><text x="252" y="22" class="coord">(5,5)</text>
    </g>
    <g id="t-r5">
      <rect x="0" y="0" width="56" height="44" class="cell" rx="3"/><text x="28" y="22" class="coord">(1,6)</text>
      <rect x="56" y="0" width="56" height="44" class="cell-h" rx="3"/><text x="84" y="22" class="coord">(2,6)</text>
      <rect x="112" y="0" width="56" height="44" class="cell" rx="3"/><text x="140" y="22" class="coord">(3,6)</text>
      <rect x="168" y="0" width="56" height="44" class="cell-h" rx="3"/><text x="196" y="22" class="coord">(4,6)</text>
      <rect x="224" y="0" width="56" height="44" class="cell" rx="3"/><text x="252" y="22" class="coord">(5,6)</text>
    </g>
    <!-- Final rotated matrix rows (5 cols) -->
    <g id="f-r0">
      <rect x="0" y="0" width="56" height="44" class="cell-h" rx="3"/><text x="28" y="22" class="coord">(1,5)</text>
      <rect x="56" y="0" width="56" height="44" class="cell" rx="3"/><text x="84" y="22" class="coord">(2,5)</text>
      <rect x="112" y="0" width="56" height="44" class="cell-h" rx="3"/><text x="140" y="22" class="coord">(3,5)</text>
      <rect x="168" y="0" width="56" height="44" class="cell" rx="3"/><text x="196" y="22" class="coord">(4,5)</text>
      <rect x="224" y="0" width="56" height="44" class="cell-h" rx="3"/><text x="252" y="22" class="coord">(5,5)</text>
    </g>
    <g id="f-r1">
      <rect x="0" y="0" width="56" height="44" class="cell" rx="3"/><text x="28" y="22" class="coord">(1,4)</text>
      <rect x="56" y="0" width="56" height="44" class="cell-h" rx="3"/><text x="84" y="22" class="coord">(2,4)</text>
      <rect x="112" y="0" width="56" height="44" class="cell" rx="3"/><text x="140" y="22" class="coord">(3,4)</text>
      <rect x="168" y="0" width="56" height="44" class="cell-h" rx="3"/><text x="196" y="22" class="coord">(4,4)</text>
      <rect x="224" y="0" width="56" height="44" class="cell" rx="3"/><text x="252" y="22" class="coord">(5,4)</text>
    </g>
    <g id="f-r2">
      <rect x="0" y="0" width="56" height="44" class="cell-h" rx="3"/><text x="28" y="22" class="coord">(1,3)</text>
      <rect x="56" y="0" width="56" height="44" class="cell" rx="3"/><text x="84" y="22" class="coord">(2,3)</text>
      <rect x="112" y="0" width="56" height="44" class="cell-h" rx="3"/><text x="140" y="22" class="coord">(3,3)</text>
      <rect x="168" y="0" width="56" height="44" class="cell" rx="3"/><text x="196" y="22" class="coord">(4,3)</text>
      <rect x="224" y="0" width="56" height="44" class="cell-h" rx="3"/><text x="252" y="22" class="coord">(5,3)</text>
    </g>
    <g id="f-r3">
      <rect x="0" y="0" width="56" height="44" class="cell" rx="3"/><text x="28" y="22" class="coord">(1,2)</text>
      <rect x="56" y="0" width="56" height="44" class="cell-h" rx="3"/><text x="84" y="22" class="coord">(2,2)</text>
      <rect x="112" y="0" width="56" height="44" class="cell" rx="3"/><text x="140" y="22" class="coord">(3,2)</text>
      <rect x="168" y="0" width="56" height="44" class="cell-h" rx="3"/><text x="196" y="22" class="coord">(4,2)</text>
      <rect x="224" y="0" width="56" height="44" class="cell" rx="3"/><text x="252" y="22" class="coord">(5,2)</text>
    </g>
    <g id="f-r4">
      <rect x="0" y="0" width="56" height="44" class="cell-h" rx="3"/><text x="28" y="22" class="coord">(1,1)</text>
      <rect x="56" y="0" width="56" height="44" class="cell" rx="3"/><text x="84" y="22" class="coord">(2,1)</text>
      <rect x="112" y="0" width="56" height="44" class="cell-h" rx="3"/><text x="140" y="22" class="coord">(3,1)</text>
      <rect x="168" y="0" width="56" height="44" class="cell" rx="3"/><text x="196" y="22" class="coord">(4,1)</text>
      <rect x="224" y="0" width="56" height="44" class="cell-h" rx="3"/><text x="252" y="22" class="coord">(5,1)</text>
    </g>
    <g id="f-r5">
      <rect x="0" y="0" width="56" height="44" class="cell" rx="3"/><text x="28" y="22" class="coord">(1,6)</text>
      <rect x="56" y="0" width="56" height="44" class="cell-h" rx="3"/><text x="84" y="22" class="coord">(2,6)</text>
      <rect x="112" y="0" width="56" height="44" class="cell" rx="3"/><text x="140" y="22" class="coord">(3,6)</text>
      <rect x="168" y="0" width="56" height="44" class="cell-h" rx="3"/><text x="196" y="22" class="coord">(4,6)</text>
      <rect x="224" y="0" width="56" height="44" class="cell" rx="3"/><text x="252" y="22" class="coord">(5,6)</text>
    </g>
  </defs>

  <!-- Background -->
  <rect width="1200" height="500" fill="#f8f9fa"/>

  <!-- Title -->
  <text x="600" y="36" text-anchor="middle" class="title">矩阵顺时针旋转 90°</text>

  <!-- Section headers -->
  <text x="218" y="80" text-anchor="middle" class="section">原矩阵</text>
  <text x="218" y="98" text-anchor="middle" class="dim">5 × 6</text>
  <text x="598" y="80" text-anchor="middle" class="section">转置</text>
  <text x="598" y="98" text-anchor="middle" class="dim">6 × 5</text>
  <text x="978" y="80" text-anchor="middle" class="section">最终结果</text>
  <text x="978" y="98" text-anchor="middle" class="dim">6 × 5</text>

  <!-- Original matrix: 5×6, centered at x=218 -->
  <g transform="translate(46, 112)">
    <use href="#o-r0" transform="translate(0, 0)"/>
    <use href="#o-r1" transform="translate(0, 44)"/>
    <use href="#o-r2" transform="translate(0, 88)"/>
    <use href="#o-r3" transform="translate(0, 132)"/>
    <use href="#o-r4" transform="translate(0, 176)"/>
  </g>

  <!-- Arrow 1: original(382) → transposed(462), circle above -->
  <line x1="382" y1="244" x2="462" y2="244" stroke="#3498db" stroke-width="2" marker-end="url(#arr-b)"/>
  <circle cx="422" cy="210" r="15" fill="#3498db"/>
  <text x="422" y="210" class="step-num">1</text>
  <text x="422" y="188" text-anchor="middle" class="step-label">转置</text>

  <!-- Transposed matrix: 6×5, centered at x=598 -->
  <g transform="translate(462, 112)">
    <use href="#t-r0" transform="translate(0, 0)"/>
    <use href="#t-r1" transform="translate(0, 44)"/>
    <use href="#t-r2" transform="translate(0, 88)"/>
    <use href="#t-r3" transform="translate(0, 132)"/>
    <use href="#t-r4" transform="translate(0, 176)"/>
    <use href="#t-r5" transform="translate(0, 220)"/>
  </g>

  <!-- Arrow 2: transposed(742) → final(838), circle above -->
  <line x1="742" y1="244" x2="838" y2="244" stroke="#9b59b6" stroke-width="2" marker-end="url(#arr-p)"/>
  <circle cx="790" cy="210" r="15" fill="#9b59b6"/>
  <text x="790" y="210" class="step-num">2</text>
  <text x="790" y="188" text-anchor="middle" class="step-label">水平翻转列</text>

  <!-- Final rotated matrix: 6×5, centered at x=978 -->
  <g transform="translate(838, 112)">
    <use href="#f-r0" transform="translate(0, 0)"/>
    <use href="#f-r1" transform="translate(0, 44)"/>
    <use href="#f-r2" transform="translate(0, 88)"/>
    <use href="#f-r3" transform="translate(0, 132)"/>
    <use href="#f-r4" transform="translate(0, 176)"/>
    <use href="#f-r5" transform="translate(0, 220)"/>
  </g>

  <!-- Formula -->
  <text x="600" y="420" text-anchor="middle" class="formula">
    顺时针旋转 90° = 转置 + 水平翻转列
  </text>
  <text x="600" y="445" text-anchor="middle" class="formula-mono">
    B[i][j] = A[j][n-1-i] ，其中 n 为原矩阵行数
  </text>
</svg>
